<svg width="22" height="24" viewBox="6 4 20 24" fill="none" xmlns="http://www.w3.org/2000/svg">
<path fill-rule="evenodd" clip-rule="evenodd" d="M17.4902 4.04369C17.7864 4.15027 17.9842 4.43303 17.9842 4.75004V12.75H25.9221C26.2097 12.75 26.4715 12.917 26.5946 13.1788C26.7178 13.4407 26.6802 13.7506 26.4981 13.9749L15.3353 27.7249C15.1362 27.9702 14.8054 28.0629 14.5092 27.9563C14.2129 27.8497 14.0152 27.567 14.0152 27.25V19.25H6.0772C5.78966 19.25 5.52784 19.083 5.4047 18.8212C5.28157 18.5593 5.31915 18.2494 5.50123 18.0251L16.664 4.27511C16.8632 4.02976 17.1939 3.93712 17.4902 4.04369ZM7.64761 17.75H14.7594C15.1704 17.75 15.5036 18.0858 15.5036 18.5V25.1489L24.3517 14.25H17.24C16.829 14.25 16.4958 13.9142 16.4958 13.5V6.85109L7.64761 17.75Z" fill="#18272B"/>
</svg>
