<svg width="20" height="24" viewBox="0 0 20 24" fill="none" xmlns="http://www.w3.org/2000/svg">
<path d="M17.4836 16.9218C17.3504 16.9182 17.2199 16.8836 17.1026 16.8207C17.013 16.772 16.9343 16.7059 16.8709 16.6264C16.8075 16.5469 16.7607 16.4555 16.7335 16.3576C16.7062 16.2598 16.699 16.1575 16.7123 16.0569C16.7255 15.9562 16.7589 15.8592 16.8105 15.7716C17.3588 14.7857 17.6847 13.6928 17.7657 12.569C17.8467 11.4451 17.6809 10.3171 17.2796 9.26346C16.8783 8.20981 16.2512 7.25574 15.442 6.46759C14.6327 5.67943 13.6608 5.07611 12.5936 4.69951C12.4977 4.66548 12.4095 4.61299 12.334 4.54503C12.2584 4.47707 12.1971 4.39496 12.1534 4.30341C12.0653 4.11852 12.0546 3.90639 12.1237 3.71364C12.1927 3.52089 12.3359 3.36332 12.5217 3.27561C12.7074 3.18791 12.9206 3.17727 13.1143 3.24599C14.9311 3.89008 16.5033 5.07758 17.6152 6.64571C18.7272 8.21385 19.3245 10.0858 19.3253 12.0051C19.324 13.5871 18.9221 15.1433 18.1568 16.5299C18.0875 16.647 17.9893 16.7444 17.8715 16.813C17.7536 16.8816 17.6201 16.919 17.4836 16.9218Z" fill="#18272B"/>
<path d="M3.23279 17.9961C3.11448 17.9961 2.99782 17.9687 2.892 17.9161C2.78618 17.8634 2.69414 17.787 2.62315 17.6928C1.34698 16.0697 0.657822 14.0659 0.667084 12.0051C0.667912 10.0858 1.2653 8.21385 2.37725 6.64571C3.4892 5.07758 5.0613 3.89008 6.87809 3.24599C7.07179 3.17727 7.28496 3.18791 7.47076 3.27561C7.65655 3.36332 7.79978 3.52089 7.86884 3.71364C7.93789 3.90639 7.92712 4.11852 7.83899 4.30341C7.75086 4.4883 7.59251 4.63079 7.39881 4.69951C6.23613 5.10815 5.18764 5.78575 4.33959 6.67653C3.49155 7.56731 2.86824 8.64579 2.52098 9.82318C2.17371 11.0006 2.11246 12.2432 2.34221 13.4487C2.57195 14.6543 3.08611 15.7884 3.84244 16.7575C3.96264 16.92 4.01521 17.1224 3.98919 17.3225C3.96316 17.5227 3.86056 17.7051 3.70274 17.8318C3.57001 17.9392 3.40386 17.9973 3.23279 17.9961Z" fill="#18272B"/>
<path d="M8.13517 8.01123C8.01163 8.0074 7.89039 7.97722 7.77957 7.92274C7.6885 7.87734 7.60748 7.81422 7.54134 7.73713C7.4752 7.66004 7.42522 7.57057 7.39444 7.47395C7.36365 7.37733 7.35269 7.27552 7.36211 7.17459C7.37153 7.07367 7.40118 6.97563 7.44932 6.8863L9.34182 3.2462L5.78544 1.41348C5.627 1.30888 5.51275 1.14999 5.46442 0.967001C5.41609 0.784014 5.43705 0.589723 5.52333 0.421126C5.60962 0.252528 5.7552 0.121367 5.93235 0.0526448C6.10949 -0.0160778 6.30581 -0.0175573 6.484 0.0484404L10.7263 2.23503C10.8182 2.27694 10.8998 2.3382 10.9656 2.41458C11.0314 2.49096 11.0798 2.58063 11.1073 2.67741C11.1836 2.86379 11.1836 3.07243 11.1073 3.25881L8.85916 7.59414C8.79411 7.71944 8.69574 7.82455 8.5748 7.89809C8.45387 7.97164 8.31504 8.01078 8.17331 8.01123" fill="#18272B"/>
<path d="M7.14482 20.802C7.05634 20.8143 6.96654 20.8143 6.87806 20.802C5.06127 20.1579 3.48917 18.9704 2.37722 17.4023C1.26527 15.8341 0.667883 13.9622 0.667055 12.0429C0.663232 11.0105 0.83504 9.98488 1.17514 9.00949C1.20792 8.91448 1.25931 8.82687 1.32639 8.75179C1.39347 8.67671 1.47487 8.61567 1.56586 8.57216C1.65685 8.52865 1.7556 8.50354 1.85642 8.49833C1.95723 8.49313 2.05815 8.50794 2.15317 8.54184C2.34629 8.60801 2.50529 8.74735 2.59568 8.92961C2.68606 9.11187 2.70045 9.32228 2.63576 9.51506C2.34572 10.3264 2.19964 11.1818 2.20395 12.0429C2.20411 13.6458 2.70378 15.2092 3.63418 16.5176C4.56458 17.826 5.87986 18.8151 7.39878 19.3485C7.59051 19.4198 7.74682 19.5626 7.83454 19.7467C7.92227 19.9307 7.93459 20.1415 7.86881 20.3344C7.81597 20.4831 7.71779 20.6117 7.58802 20.7023C7.45825 20.793 7.30335 20.8411 7.14482 20.8399" fill="#18272B"/>
<path d="M12.8605 20.8027C12.6801 20.8006 12.5061 20.7359 12.3685 20.6199C12.2309 20.5038 12.1383 20.3436 12.1067 20.1668C12.0751 19.9901 12.1065 19.808 12.1954 19.6518C12.2843 19.4956 12.4251 19.3752 12.5937 19.3113C13.8351 18.8754 14.9451 18.1334 15.8201 17.1547C16.695 16.176 17.3063 14.9925 17.5968 13.7148C17.8874 12.4372 17.8476 11.1071 17.4813 9.84893C17.115 8.59072 16.4341 7.44547 15.5023 6.52022C15.421 6.45116 15.355 6.36611 15.3083 6.27043C15.2617 6.17474 15.2354 6.07047 15.2312 5.9642C15.227 5.85792 15.245 5.75193 15.2839 5.65288C15.3229 5.55384 15.382 5.46387 15.4576 5.38866C15.5331 5.31346 15.6236 5.25462 15.7231 5.21586C15.8226 5.1771 15.9291 5.15925 16.0359 5.16344C16.1427 5.16762 16.2475 5.19377 16.3437 5.2402C16.4398 5.28662 16.5253 5.35233 16.5947 5.43321C17.7084 6.54107 18.5228 7.91095 18.9623 9.41569C19.4019 10.9204 19.4523 12.5113 19.1089 14.0406C18.7656 15.5699 18.0396 16.9882 16.9983 18.1637C15.957 19.3392 14.6342 20.2339 13.1526 20.7648H12.8985" fill="#18272B"/>
<path d="M13.8505 24.0002C13.7304 24.0011 13.6122 23.9706 13.5076 23.9118L9.26531 21.7378C9.08383 21.6435 8.94725 21.4816 8.88537 21.2874C8.82349 21.0932 8.84134 20.8825 8.93506 20.7014L11.1705 16.366C11.2653 16.1855 11.428 16.0495 11.6232 15.988C11.8183 15.9264 12.03 15.9442 12.212 16.0375C12.3031 16.0829 12.3841 16.146 12.4503 16.2231C12.5164 16.3001 12.5663 16.3896 12.5971 16.4862C12.6279 16.5829 12.6389 16.6847 12.6295 16.7856C12.6201 16.8865 12.5904 16.9846 12.5423 17.0739L10.6117 20.714L14.168 22.5467C14.321 22.6267 14.4428 22.7553 14.5139 22.912C14.585 23.0687 14.6014 23.2446 14.5605 23.4117C14.5197 23.5787 14.4238 23.7274 14.2883 23.8341C14.1527 23.9407 13.9852 23.9992 13.8124 24.0002" fill="#18272B"/>
</svg>
